<svg width="20" height="20" viewBox="0 0 20 20" fill="none" xmlns="http://www.w3.org/2000/svg">
<g id="Frame" clip-path="url(#clip0_13_2734)">
<g id="Group 1">
<path id="Ellipse 1 (Stroke)" fill-rule="evenodd" clip-rule="evenodd" d="M10 1.83341C5.4897 1.83341 1.83335 5.48976 1.83335 10.0001C1.83335 14.5104 5.4897 18.1667 10 18.1667C14.5103 18.1667 18.1667 14.5104 18.1667 10.0001C18.1667 5.48976 14.5103 1.83341 10 1.83341ZM0.166687 10.0001C0.166687 4.56928 4.56922 0.166748 10 0.166748C15.4308 0.166748 19.8334 4.56928 19.8334 10.0001C19.8334 15.4309 15.4308 19.8334 10 19.8334C4.56922 19.8334 0.166687 15.4309 0.166687 10.0001Z" fill="#101828"/>
<path id="Ellipse 2 (Stroke)" fill-rule="evenodd" clip-rule="evenodd" d="M10 6.83341C8.25112 6.83341 6.83335 8.25118 6.83335 10.0001C6.83335 11.749 8.25112 13.1667 10 13.1667C11.7489 13.1667 13.1667 11.749 13.1667 10.0001C13.1667 8.25118 11.7489 6.83341 10 6.83341ZM5.16669 10.0001C5.16669 7.33071 7.33064 5.16675 10 5.16675C12.6694 5.16675 14.8334 7.33071 14.8334 10.0001C14.8334 12.6695 12.6694 14.8334 10 14.8334C7.33064 14.8334 5.16669 12.6695 5.16669 10.0001Z" fill="#101828"/>
</g>
</g>
<defs>
<clipPath id="clip0_13_2734">
<rect width="20" height="20" fill="white"/>
</clipPath>
</defs>
</svg>
