<svg width="20" height="20" viewBox="0 0 20 20" fill="none" xmlns="http://www.w3.org/2000/svg">
<g id="Frame 32">
<path id="Vector (Stroke)" fill-rule="evenodd" clip-rule="evenodd" d="M17.256 5.24408C17.5814 5.56951 17.5814 6.09715 17.256 6.42259L8.92263 14.7559C8.59719 15.0814 8.06956 15.0814 7.74412 14.7559L3.57745 10.5893C3.25201 10.2638 3.25201 9.73618 3.57745 9.41074C3.90289 9.08531 4.43053 9.08531 4.75596 9.41074L8.33337 12.9882L16.0775 5.24408C16.4029 4.91864 16.9305 4.91864 17.256 5.24408Z" fill="#101828"/>
<path id="Rectangle 1 (Stroke)" fill-rule="evenodd" clip-rule="evenodd" d="M18.3333 1.66667H1.66667L1.66667 18.3333H18.3333V1.66667ZM1.66667 0C0.746192 0 0 0.746192 0 1.66667V18.3333C0 19.2538 0.746192 20 1.66667 20H18.3333C19.2538 20 20 19.2538 20 18.3333V1.66667C20 0.746192 19.2538 0 18.3333 0H1.66667Z" fill="#101828"/>
</g>
</svg>
