<svg width="20" height="20" viewBox="0 0 20 20" fill="none" xmlns="http://www.w3.org/2000/svg">
<g id="Frame" clip-path="url(#clip0_1_187)">
<path id="Vector" d="M3.33334 5.83334H16.6667" stroke="#98A2B3" stroke-width="2" stroke-linecap="round" stroke-linejoin="round"/>
<path id="Vector (Stroke)" fill-rule="evenodd" clip-rule="evenodd" d="M8.33333 8.33334C8.79357 8.33334 9.16667 8.70643 9.16667 9.16667V14.1667C9.16667 14.6269 8.79357 15 8.33333 15C7.8731 15 7.5 14.6269 7.5 14.1667V9.16667C7.5 8.70643 7.8731 8.33334 8.33333 8.33334Z" fill="#98A2B3"/>
<path id="Vector (Stroke)_2" fill-rule="evenodd" clip-rule="evenodd" d="M11.6667 8.33334C12.1269 8.33334 12.5 8.70643 12.5 9.16667V14.1667C12.5 14.6269 12.1269 15 11.6667 15C11.2064 15 10.8333 14.6269 10.8333 14.1667V9.16667C10.8333 8.70643 11.2064 8.33334 11.6667 8.33334Z" fill="#98A2B3"/>
<path id="Vector (Stroke)_3" fill-rule="evenodd" clip-rule="evenodd" d="M4.09746 5.00288C4.55611 4.96466 4.9589 5.30548 4.99712 5.76413L5.83045 15.7641C5.83237 15.7871 5.83333 15.8102 5.83333 15.8333C5.83333 16.0543 5.92113 16.2663 6.07741 16.4226C6.23369 16.5789 6.44565 16.6667 6.66666 16.6667H13.3333C13.5543 16.6667 13.7663 16.5789 13.9226 16.4226C14.0789 16.2663 14.1667 16.0543 14.1667 15.8333C14.1667 15.8102 14.1676 15.7871 14.1695 15.7641L15.0029 5.76413C15.0411 5.30548 15.4439 4.96466 15.9025 5.00288C16.3612 5.0411 16.702 5.44389 16.6638 5.90254L15.833 15.8715C15.8231 16.5207 15.5609 17.1413 15.1011 17.6011C14.6323 18.0699 13.9964 18.3333 13.3333 18.3333H6.66666C6.00362 18.3333 5.36774 18.0699 4.8989 17.6011C4.43905 17.1413 4.17685 16.5207 4.16695 15.8715L3.33621 5.90254C3.29799 5.44389 3.63881 5.0411 4.09746 5.00288Z" fill="#98A2B3"/>
<path id="Vector (Stroke)_4" fill-rule="evenodd" clip-rule="evenodd" d="M7.15481 2.15482C7.46737 1.84226 7.8913 1.66666 8.33332 1.66666H11.6667C12.1087 1.66666 12.5326 1.84226 12.8452 2.15482C13.1577 2.46738 13.3333 2.8913 13.3333 3.33333V5.83333C13.3333 6.29357 12.9602 6.66666 12.5 6.66666C12.0398 6.66666 11.6667 6.29357 11.6667 5.83333V3.33333H8.33332L8.33332 5.83333C8.33332 6.29357 7.96023 6.66666 7.49999 6.66666C7.03975 6.66666 6.66666 6.29357 6.66666 5.83333V3.33333C6.66666 2.8913 6.84225 2.46738 7.15481 2.15482Z" fill="#98A2B3"/>
</g>
<defs>
<clipPath id="clip0_1_187">
<rect width="20" height="20" fill="white"/>
</clipPath>
</defs>
</svg>
