<svg width="20" height="20" viewBox="0 0 20 20" fill="none" xmlns="http://www.w3.org/2000/svg">
<g id="Frame" clip-path="url(#clip0_13_1576)">
<path id="Vector (Stroke)" fill-rule="evenodd" clip-rule="evenodd" d="M15.5892 4.41075C15.9147 4.73619 15.9147 5.26382 15.5892 5.58926L5.58922 15.5893C5.26378 15.9147 4.73614 15.9147 4.4107 15.5893C4.08527 15.2638 4.08527 14.7362 4.4107 14.4108L14.4107 4.41075C14.7361 4.08531 15.2638 4.08531 15.5892 4.41075Z" fill="#98A2B3"/>
<path id="Vector (Stroke)_2" fill-rule="evenodd" clip-rule="evenodd" d="M4.4107 4.41075C4.73614 4.08531 5.26378 4.08531 5.58922 4.41075L15.5892 14.4108C15.9147 14.7362 15.9147 15.2638 15.5892 15.5893C15.2638 15.9147 14.7361 15.9147 14.4107 15.5893L4.4107 5.58926C4.08527 5.26382 4.08527 4.73619 4.4107 4.41075Z" fill="#98A2B3"/>
</g>
<defs>
<clipPath id="clip0_13_1576">
<rect width="20" height="20" fill="white"/>
</clipPath>
</defs>
</svg>
